Coordinates
version=1
nRows=6
nColumns=36
inDegrees=yes

Units are S.I. units (second, meters, Newtons, ...)
If the header above contains a line with 'inDegrees', this indicates whether rotational values are in degrees (yes) or radians (no).

endheader
time	pelvis_tilt	pelvis_list	pelvis_rotation	pelvis_tx	pelvis_ty	pelvis_tz	hip_flexion_r	hip_adduction_r	hip_rotation_r	knee_angle_r	knee_angle_r_beta	ankle_angle_r	subtalar_angle_r	mtp_angle_r	hip_flexion_l	hip_adduction_l	hip_rotation_l	knee_angle_l	knee_angle_l_beta	ankle_angle_l	subtalar_angle_l	mtp_angle_l	lumbar_extension	lumbar_bending	lumbar_rotation	arm_flex_r	arm_add_r	arm_rot_r	elbow_flex_r	pro_sup_r	arm_flex_l	arm_add_l	arm_rot_l	elbow_flex_l	pro_sup_l
      6.96666670	    -10.21396673	      9.56413221	     -6.19259967	     -0.01646890	      0.91729608	      0.08852522	     25.14678448	      0.84453951	      8.97197250	     16.98080547	      0.29637097	      6.72160509	    -11.79615271	     -7.49999987	     70.12566262	      2.88544766	     -2.28480455	     33.50810082	      0.58482669	    -10.19201571	    -18.70170624	     -7.49999987	     -5.20706522	     -0.08911664	      6.70915578	     38.15619624	    -41.68106526	     14.06451836	    118.89208102	     83.26990124	   -124.50352077	   -141.86739064	   -149.60237764	     91.59222882	     80.24736936
      6.98333330	    -10.03647618	      9.59822113	     -6.26438741	     -0.01617746	      0.91913692	      0.08898923	     24.84890494	      0.82559902	      9.07761953	     16.98519482	      0.29644757	      6.95747465	    -11.63852419	     -7.49999987	     69.54980208	      2.83954689	     -2.28536698	     32.75956680	      0.57176230	     -9.88518217	    -18.22856785	     -7.49999987	     -5.37373857	     -0.31588796	      6.66595259	     37.73642706	    -43.57235732	     18.15930642	    120.85235935	     84.68932159	   -124.29541624	   -140.10655219	   -146.38651802	     92.13247531	     81.04554979
      7.00000000	     -9.94826837	      9.49503570	     -6.47817353	     -0.01416228	      0.91945473	      0.08872298	     24.85462265	      0.96601476	      9.02040328	     17.38149182	      0.30336426	      7.20434039	    -11.80850650	     -7.49999987	     69.30919499	      2.66091321	     -2.22596124	     32.62848632	      0.56947452	     -9.71281374	    -18.43519720	     -7.49999987	     -5.46261664	     -0.44649206	      6.74165883	     38.32308434	    -45.41521165	     22.45116216	    122.33546925	     84.68158800	   -123.51768844	   -139.67145582	   -143.90468029	     91.50114891	     80.69277198
      7.01666670	     -9.69014236	      9.39793632	     -6.62398896	     -0.01446730	      0.91920859	      0.08872484	     24.63496191	      1.06188032	      9.02963208	     17.64642659	      0.30798825	      7.51407179	    -11.90156328	     -7.49999987	     68.95947608	      2.51369112	     -2.09638419	     32.52200483	      0.56761606	     -9.60385353	    -18.58609464	     -7.49999987	     -5.76102682	      0.95861329	      0.48275261	     51.88298001	    -39.62099122	     39.47029992	    116.72331270	     87.02006440	   -131.97262964	   -132.23553422	   -151.34749455	     95.37015795	     83.26412652
      7.03333330	     -9.54736892	      9.31196144	     -6.81320506	     -0.01597216	      0.91863107	      0.08856758	     24.56805504	      1.22429567	      9.26988224	     17.64852513	      0.30802487	      7.65791530	    -12.14886025	     -7.49999987	     68.88247473	      2.26529618	     -2.04640555	     32.53316587	      0.56781086	     -9.60557377	    -18.84143273	     -7.49999987	     -5.90370624	      0.92239122	      0.23884379	     55.29789785	    -39.28885362	     45.23880123	    117.26961742	     86.73305263	   -129.63103641	   -133.03515707	   -147.71468467	     92.00357804	     82.80369127
      7.05000000	     -9.40558419	      9.45788052	     -7.04260984	     -0.01717736	      0.91962554	      0.08899720	     24.40752584	      1.16857401	      9.68359718	     17.42197419	      0.30407081	      7.68825700	    -12.19355088	     -7.49999987	     68.67294348	      2.18018733	     -2.11619570	     32.18401863	      0.56171709	     -9.77438192	    -18.93175898	     -7.49999987	     -6.11748332	      0.57048382	     -0.05245214	     57.89576098	    -37.94895377	     49.10043414	    118.30995813	     86.22779618	   -128.12062842	   -134.04727913	   -145.67323703	     89.15758579	     82.19660270
